# xmcd
# Track frame offsets:
# 150
# 19311
# 40244
# 56980
# 78150
# 96067
# 113114
# 132251
# 153184
# 169924
# 191141
# 209051
#
# Disc length: 3013 seconds
# Revision: 0
# Processed by: cddbd v1.5.2PL0 Copyright (c) Steve Scherf et al.
# Submitted via: VisiTrax 2.11.3.279 - For more info visit www.synapsa.com
#
DISCID=a60bc30c
DTITLE=Rait, Bonnie - Cb40008  DISK  #
DYEAR=2010
DGENRE=Country
TTITLE0=Blue For No Reason (Vocals)
TTITLE1=Lovers Will (Vocals)
TTITLE2=Something To Talk About (Vocals)
TTITLE3=I Can't Make You Love Me (Vocals)
TTITLE4=Runaway (Vocals)
TTITLE5=Thing Called Love, A (Vocals)
TTITLE6=Blue For No Reason
TTITLE7=Lovers Will
TTITLE8=Something To Talk About
TTITLE9=I Can't Make You Love Me
TTITLE10=Runaway
TTITLE11=Thing Called Love, A
EXTD=
EXTT0=
EXTT1=
EXTT2=
EXTT3=
EXTT4=
EXTT5=
EXTT6=
EXTT7=
EXTT8=
EXTT9=
EXTT10=
EXTT11=
PLAYORDER=
